<?xml version="1.0" encoding="UTF-8" standalone="no"?> <!-- Created with Vectornator for iOS (http://vectornator.io/) --><!DOCTYPE svg PUBLIC "-//W3C//DTD SVG 1.1//EN" "http://www.w3.org/Graphics/SVG/1.1/DTD/svg11.dtd">
<svg style="fill-rule:evenodd;clip-rule:evenodd;stroke-linecap:round;stroke-linejoin:round;" xmlns:vectornator="http://vectornator.io" xmlns:xlink="http://www.w3.org/1999/xlink" xmlns="http://www.w3.org/2000/svg" xml:space="preserve" version="1.1" viewBox="0 0 697 144">
<metadata>
<vectornator:setting key="DimensionsVisible" value="1"/>
<vectornator:setting key="SnapToGrid" value="0"/>
<vectornator:setting key="SnapToPoints" value="0"/>
<vectornator:setting key="GuidesVisible" value="1"/>
<vectornator:setting key="RulersVisible" value="1"/>
<vectornator:setting key="SnapToEdges" value="0"/>
<vectornator:setting key="DisplayWhiteBackground" value="1"/>
<vectornator:setting key="SnapToGuides" value="1"/>
<vectornator:setting key="GridSpacing" value="36"/>
<vectornator:setting key="Units" value="Pixels"/>
<vectornator:setting key="DynamicGuides" value="1"/>
<vectornator:setting key="New" value="1"/>
</metadata>
<defs>
<linearGradient y1="256.098" id="LinearGradient" x1="631.636" y2="259.176" x2="1351.67" gradientUnits="userSpaceOnUse" gradientTransform="matrix(0.996541 0 0 0.996541 -629.951 -111.658)">
<stop stop-color="#06689b" offset="0"/>
<stop stop-color="#fe5252" offset="1"/>
</linearGradient>
<linearGradient y1="256.098" id="LinearGradient_2" x1="631.636" y2="259.176" x2="1351.67" gradientUnits="userSpaceOnUse" gradientTransform="matrix(0.996541 0 0 0.996541 -629.951 -111.658)">
<stop stop-color="#06689b" offset="0"/>
<stop stop-color="#fe5252" offset="1"/>
</linearGradient>
<linearGradient y1="256.098" id="LinearGradient_3" x1="631.636" y2="259.176" x2="1351.67" gradientUnits="userSpaceOnUse" gradientTransform="matrix(0.996541 0 0 0.996541 -629.951 -111.658)">
<stop stop-color="#06689b" offset="0"/>
<stop stop-color="#fe5252" offset="1"/>
</linearGradient>
<linearGradient y1="256.098" id="LinearGradient_4" x1="631.636" y2="259.176" x2="1351.67" gradientUnits="userSpaceOnUse" gradientTransform="matrix(0.996541 0 0 0.996541 -629.951 -111.658)">
<stop stop-color="#06689b" offset="0"/>
<stop stop-color="#fe5252" offset="1"/>
</linearGradient>
<linearGradient y1="256.098" id="LinearGradient_5" x1="631.636" y2="259.176" x2="1351.67" gradientUnits="userSpaceOnUse" gradientTransform="matrix(0.996541 0 0 0.996541 -629.951 -111.658)">
<stop stop-color="#06689b" offset="0"/>
<stop stop-color="#fe5252" offset="1"/>
</linearGradient>
<linearGradient y1="256.098" id="LinearGradient_6" x1="631.636" y2="259.176" x2="1351.67" gradientUnits="userSpaceOnUse" gradientTransform="matrix(0.996541 0 0 0.996541 -629.951 -111.658)">
<stop stop-color="#06689b" offset="0"/>
<stop stop-color="#fe5252" offset="1"/>
</linearGradient>
<linearGradient y1="256.098" id="LinearGradient_7" x1="631.636" y2="259.176" x2="1351.67" gradientUnits="userSpaceOnUse" gradientTransform="matrix(0.996541 0 0 0.996541 -629.951 -111.658)">
<stop stop-color="#06689b" offset="0"/>
<stop stop-color="#fe5252" offset="1"/>
</linearGradient>
<linearGradient y1="256.098" id="LinearGradient_8" x1="631.636" y2="259.176" x2="1351.67" gradientUnits="userSpaceOnUse" gradientTransform="matrix(0.996541 0 0 0.996541 -629.951 -111.658)">
<stop stop-color="#06689b" offset="0"/>
<stop stop-color="#fe5252" offset="1"/>
</linearGradient>
<linearGradient y1="256.098" id="LinearGradient_9" x1="631.636" y2="259.176" x2="1351.67" gradientUnits="userSpaceOnUse" gradientTransform="matrix(0.996541 0 0 0.996541 -629.951 -111.658)">
<stop stop-color="#06689b" offset="0"/>
<stop stop-color="#fe5252" offset="1"/>
</linearGradient>
<linearGradient y1="256.098" id="LinearGradient_10" x1="631.636" y2="259.176" x2="1351.67" gradientUnits="userSpaceOnUse" gradientTransform="matrix(0.996541 0 0 0.996541 -629.951 -111.658)">
<stop stop-color="#06689b" offset="0"/>
<stop stop-color="#fe5252" offset="1"/>
</linearGradient>
<linearGradient y1="256.098" id="LinearGradient_11" x1="631.636" y2="259.176" x2="1351.67" gradientUnits="userSpaceOnUse" gradientTransform="matrix(0.996541 0 0 0.996541 -629.951 -111.658)">
<stop stop-color="#06689b" offset="0"/>
<stop stop-color="#fe5252" offset="1"/>
</linearGradient>
<linearGradient y1="256.098" id="LinearGradient_12" x1="631.636" y2="259.176" x2="1351.67" gradientUnits="userSpaceOnUse" gradientTransform="matrix(0.996541 0 0 0.996541 -629.951 -111.658)">
<stop stop-color="#06689b" offset="0"/>
<stop stop-color="#fe5252" offset="1"/>
</linearGradient>
</defs>
<g id="Layer 1" vectornator:layerName="Layer 1">
<g opacity="1">
<path d="M7.16199+45.6845L21.7484+45.6845L21.7484+52.6812L22.6971+52.6812C24.1201+50.2304+26.3338+48.1353+29.338+46.396C32.3423+44.6567+36.058+43.7871+40.4853+43.7871C44.2011+43.7871+47.739+44.5579+51.099+46.0996C54.459+47.6412+57.4237+49.7758+59.9931+52.5033C62.5625+55.2309+64.5983+58.492+66.1004+62.2869C67.6026+66.0817+68.3536+70.2323+68.3536+74.7387C68.3536+79.245+67.6026+83.3956+66.1004+87.1904C64.5983+90.9853+62.5625+94.2465+59.9931+96.974C57.4237+99.7015+54.459+101.836+51.099+103.378C47.739+104.919+44.2011+105.69+40.4853+105.69C36.058+105.69+32.3423+104.821+29.338+103.081C26.3338+101.342+24.1201+99.2469+22.6971+96.7961L21.7484+96.7961L22.6971+105.097L22.6971+129.408L7.16199+129.408L7.16199+45.6845ZM37.2834+91.341C39.339+91.341+41.2957+90.9457+43.1536+90.1552C45.0115+89.3646+46.6519+88.2577+48.075+86.8347C49.4981+85.4116+50.6444+83.6723+51.5141+81.6168C52.3837+79.5613+52.8185+77.2685+52.8185+74.7387C52.8185+72.2088+52.3837+69.9161+51.5141+67.8605C50.6444+65.805+49.4981+64.0657+48.075+62.6426C46.6519+61.2196+45.0115+60.1128+43.1536+59.3222C41.2957+58.5316+39.339+58.1363+37.2834+58.1363C35.2279+58.1363+33.2712+58.5118+31.4133+59.2629C29.5554+60.0139+27.915+61.101+26.4919+62.5241C25.0688+63.9471+23.9225+65.6864+23.0528+67.7419C22.1832+69.7975+21.7484+72.1297+21.7484+74.7387C21.7484+77.3476+22.1832+79.6798+23.0528+81.7354C23.9225+83.7909+25.0688+85.5302+26.4919+86.9533C27.915+88.3763+29.5554+89.4634+31.4133+90.2145C33.2712+90.9655+35.2279+91.341+37.2834+91.341Z" opacity="1" fill="url(#LinearGradient)"/>
<path d="M110.175+97.6262L109.227+97.6262C107.408+99.8399+105.214+101.737+102.645+103.318C100.076+104.9+96.7748+105.69+92.7428+105.69C89.7386+105.69+86.9122+105.196+84.2638+104.208C81.6153+103.22+79.3028+101.856+77.3263+100.117C75.3499+98.3773+73.8082+96.2822+72.7014+93.8314C71.5946+91.3806+71.0411+88.6926+71.0411+85.7674C71.0411+82.7631+71.6341+80.0554+72.82+77.6441C74.0059+75.2328+75.6661+73.1575+77.8007+71.4182C79.9353+69.6789+82.4454+68.3547+85.3311+67.4455C88.2167+66.5363+91.3593+66.0817+94.7588+66.0817C98.5537+66.0817+101.676+66.3782+104.127+66.9711C106.578+67.5641+108.594+68.1768+110.175+68.8092L110.175+67.0304C110.175+63.9471+108.95+61.3975+106.499+59.3815C104.048+57.3655+101.004+56.3575+97.3678+56.3575C91.9918+56.3575+87.4459+58.6106+83.7301+63.117L72.4642+55.4088C78.6308+47.661+87.0506+43.7871+97.7235+43.7871C106.736+43.7871+113.614+45.9019+118.358+50.1316C123.101+54.3612+125.473+60.6266+125.473+68.9278L125.473+103.793L110.175+103.793L110.175+97.6262ZM110.175+80.1937C108.357+79.3241+106.479+78.6323+104.542+78.1184C102.605+77.6045+100.491+77.3476+98.1979+77.3476C94.4821+77.3476+91.6162+78.158+89.6002+79.7787C87.5842+81.3994+86.5762+83.3956+86.5762+85.7674C86.5762+88.1392+87.5447+90.0366+89.4816+91.4596C91.4186+92.8827+93.652+93.5942+96.1819+93.5942C98.2374+93.5942+100.135+93.2187+101.874+92.4676C103.613+91.7166+105.096+90.7283+106.321+89.5029C107.547+88.2775+108.495+86.8544+109.167+85.2337C109.839+83.613+110.175+81.933+110.175+80.1937Z" opacity="1" fill="url(#LinearGradient_2)"/>
<path d="M133.853+45.6845L148.439+45.6845L148.439+53.7485L149.388+53.7485C150.1+52.3255+151.048+51.021+152.234+49.8351C153.42+48.6492+154.744+47.6214+156.207+46.7518C157.67+45.8821+159.251+45.2101+160.95+44.7358C162.65+44.2614+164.33+44.0243+165.99+44.0243C168.046+44.0243+169.805+44.2219+171.268+44.6172C172.73+45.0125+173.975+45.5264+175.003+46.1589L170.853+60.2709C169.904+59.7965+168.856+59.421+167.71+59.1443C166.564+58.8676+165.16+58.7292+163.5+58.7292C161.366+58.7292+159.429+59.1443+157.689+59.9744C155.95+60.8045+154.468+61.9706+153.242+63.4728C152.017+64.9749+151.068+66.7339+150.396+68.7499C149.724+70.766+149.388+72.9598+149.388+75.3316L149.388+103.793L133.853+103.793L133.853+45.6845Z" opacity="1" fill="url(#LinearGradient_3)"/>
<path d="M178.758+103.793L178.758+18.8835L194.293+18.8835L194.293+103.793L178.758+103.793Z" opacity="1" fill="url(#LinearGradient_4)"/>
<path d="M258.054+89.7994C255.366+94.5429+251.749+98.3773+247.203+101.302C242.657+104.228+237.103+105.69+230.541+105.69C226.114+105.69+222.023+104.919+218.267+103.378C214.512+101.836+211.251+99.6818+208.484+96.9147C205.717+94.1476+203.562+90.8865+202.021+87.1312C200.479+83.3759+199.708+79.245+199.708+74.7387C199.708+70.5485+200.459+66.5758+201.961+62.8205C203.463+59.0652+205.559+55.7843+208.247+52.9777C210.935+50.1711+214.117+47.9377+217.793+46.2774C221.469+44.6172+225.521+43.7871+229.948+43.7871C234.613+43.7871+238.763+44.5579+242.4+46.0996C246.037+47.6412+249.08+49.7758+251.531+52.5033C253.982+55.2309+255.84+58.4525+257.105+62.1683C258.37+65.8841+259.002+69.9161+259.002+74.2643C259.002+74.8177+259.002+75.2921+259.002+75.6874C258.923+76.1617+258.884+76.5965+258.884+76.9918C258.805+77.3871+258.765+77.822+258.765+78.2963L215.006+78.2963C215.322+80.6681+215.975+82.7039+216.963+84.4036C217.951+86.1034+219.176+87.5264+220.639+88.6728C222.102+89.8192+223.703+90.6493+225.442+91.1632C227.181+91.677+228.96+91.934+230.778+91.934C234.336+91.934+237.281+91.1236+239.613+89.5029C241.945+87.8822+243.784+85.8464+245.128+83.3956L258.054+89.7994ZM243.942+67.2676C243.863+66.2398+243.527+65.0935+242.934+63.8285C242.341+62.5636+241.471+61.3777+240.325+60.2709C239.178+59.1641+237.755+58.2549+236.056+57.5433C234.356+56.8318+232.32+56.476+229.948+56.476C226.628+56.476+223.703+57.4248+221.173+59.3222C218.643+61.2196+216.864+63.8681+215.836+67.2676L243.942+67.2676Z" opacity="1" fill="url(#LinearGradient_5)"/>
<path d="M265.01+45.6845L279.597+45.6845L279.597+53.2742L280.545+53.2742C282.364+50.428+284.834+48.1353+287.957+46.396C291.08+44.6567+294.539+43.7871+298.334+43.7871C302.761+43.7871+306.477+44.8149+309.481+46.8704C312.485+48.9259+314.62+51.4558+315.885+54.46C317.703+51.5349+320.273+49.0247+323.593+46.9297C326.914+44.8346+330.946+43.7871+335.689+43.7871C339.247+43.7871+342.33+44.3603+344.939+45.5066C347.548+46.653+349.702+48.2539+351.402+50.3094C353.102+52.365+354.387+54.8356+355.256+57.7212C356.126+60.6069+356.561+63.7495+356.561+67.149L356.561+103.793L341.026+103.793L341.026+69.9951C341.026+62.0892+337.784+58.1363+331.301+58.1363C329.246+58.1363+327.427+58.5909+325.846+59.5001C324.265+60.4092+322.941+61.6346+321.874+63.1763C320.806+64.7179+319.976+66.5561+319.383+68.6907C318.79+70.8252+318.494+73.118+318.494+75.5688L318.494+103.793L302.959+103.793L302.959+69.9951C302.959+62.0892+299.559+58.1363+292.76+58.1363C290.784+58.1363+289.044+58.5909+287.542+59.5001C286.04+60.4092+284.775+61.6346+283.747+63.1763C282.72+64.7179+281.929+66.5561+281.376+68.6907C280.822+70.8252+280.545+73.118+280.545+75.5688L280.545+103.793L265.01+103.793L265.01+45.6845Z" opacity="1" fill="url(#LinearGradient_6)"/>
<path d="M420.44+89.7994C417.752+94.5429+414.135+98.3773+409.589+101.302C405.043+104.228+399.489+105.69+392.927+105.69C388.5+105.69+384.409+104.919+380.653+103.378C376.898+101.836+373.637+99.6818+370.87+96.9147C368.103+94.1476+365.948+90.8865+364.407+87.1312C362.865+83.3759+362.094+79.245+362.094+74.7387C362.094+70.5485+362.845+66.5758+364.347+62.8205C365.85+59.0652+367.945+55.7843+370.633+52.9777C373.321+50.1711+376.503+47.9377+380.179+46.2774C383.855+44.6172+387.907+43.7871+392.334+43.7871C396.999+43.7871+401.149+44.5579+404.786+46.0996C408.423+47.6412+411.467+49.7758+413.917+52.5033C416.368+55.2309+418.226+58.4525+419.491+62.1683C420.756+65.8841+421.389+69.9161+421.389+74.2643C421.389+74.8177+421.389+75.2921+421.389+75.6874C421.309+76.1617+421.27+76.5965+421.27+76.9918C421.191+77.3871+421.151+77.822+421.151+78.2963L377.392+78.2963C377.708+80.6681+378.361+82.7039+379.349+84.4036C380.337+86.1034+381.563+87.5264+383.025+88.6728C384.488+89.8192+386.089+90.6493+387.828+91.1632C389.567+91.677+391.346+91.934+393.164+91.934C396.722+91.934+399.667+91.1236+401.999+89.5029C404.332+87.8822+406.17+85.8464+407.514+83.3956L420.44+89.7994ZM406.328+67.2676C406.249+66.2398+405.913+65.0935+405.32+63.8285C404.727+62.5636+403.857+61.3777+402.711+60.2709C401.564+59.1641+400.141+58.2549+398.442+57.5433C396.742+56.8318+394.706+56.476+392.334+56.476C389.014+56.476+386.089+57.4248+383.559+59.3222C381.029+61.2196+379.25+63.8681+378.222+67.2676L406.328+67.2676Z" opacity="1" fill="url(#LinearGradient_7)"/>
<path d="M441.983+53.2742L442.932+53.2742C444.75+50.349+447.201+48.0365+450.284+46.3367C453.367+44.637+456.886+43.7871+460.838+43.7871C464.475+43.7871+467.677+44.38+470.444+45.5659C473.211+46.7518+475.484+48.4318+477.263+50.6059C479.042+52.78+480.386+55.389+481.295+58.4328C482.204+61.4765+482.659+64.8563+482.659+68.5721L482.659+103.793L467.124+103.793L467.124+70.4695C467.124+66.2794+466.195+63.1763+464.337+61.1603C462.479+59.1443+459.771+58.1363+456.214+58.1363C454.079+58.1363+452.201+58.5909+450.581+59.5001C448.96+60.4092+447.576+61.6346+446.43+63.1763C445.284+64.7179+444.414+66.5363+443.821+68.6314C443.228+70.7264+442.932+72.9598+442.932+75.3316L442.932+103.793L427.397+103.793L427.397+45.6845L441.983+45.6845L441.983+53.2742Z" opacity="1" fill="url(#LinearGradient_8)"/>
<path d="M494.952+58.9664L484.753+58.9664L484.753+45.6845L494.952+45.6845L494.952+27.8962L510.487+27.8962L510.487+45.6845L524.718+45.6845L524.718+58.9664L510.487+58.9664L510.487+81.4982C510.487+82.8422+510.625+84.0874+510.902+85.2337C511.179+86.3801+511.712+87.3486+512.503+88.1392C513.61+89.4041+515.191+90.0366+517.247+90.0366C518.591+90.0366+519.658+89.8982+520.448+89.6215C521.239+89.3448+521.99+88.9693+522.702+88.4949L527.089+102.133C525.271+103.002+523.314+103.654+521.219+104.089C519.124+104.524+516.812+104.742+514.282+104.742C511.357+104.742+508.728+104.287+506.396+103.378C504.063+102.469+502.107+101.223+500.526+99.6422C496.81+96.0846+494.952+91.0248+494.952+84.4629L494.952+58.9664Z" opacity="1" fill="url(#LinearGradient_9)"/>
<path d="M547.328+53.2742L548.277+53.2742C550.095+50.349+552.546+48.0365+555.629+46.3367C558.713+44.637+562.231+43.7871+566.184+43.7871C569.82+43.7871+573.022+44.38+575.789+45.5659C578.556+46.7518+580.829+48.4318+582.608+50.6059C584.387+52.78+585.731+55.389+586.64+58.4328C587.549+61.4765+588.004+64.8563+588.004+68.5721L588.004+103.793L572.469+103.793L572.469+70.4695C572.469+66.2794+571.54+63.1763+569.682+61.1603C567.824+59.1443+565.116+58.1363+561.559+58.1363C559.424+58.1363+557.546+58.5909+555.926+59.5001C554.305+60.4092+552.921+61.6346+551.775+63.1763C550.629+64.7179+549.759+66.5363+549.166+68.6314C548.573+70.7264+548.277+72.9598+548.277+75.3316L548.277+103.793L532.742+103.793L532.742+45.6845L547.328+45.6845L547.328+53.2742Z" opacity="1" fill="url(#LinearGradient_10)"/>
<path d="M596.858+103.793L596.858+18.8835L612.393+18.8835L612.393+103.793L596.858+103.793Z" opacity="1" fill="url(#LinearGradient_11)"/>
<path d="M631.09+104.504C628.244+104.504+625.813+103.496+623.797+101.48C621.781+99.4643+620.773+97.0333+620.773+94.1872C620.773+91.341+621.781+88.9297+623.797+86.9533C625.813+84.9768+628.244+83.9886+631.09+83.9886C633.936+83.9886+636.347+84.9768+638.324+86.9533C640.3+88.9297+641.289+91.341+641.289+94.1872C641.289+97.0333+640.3+99.4643+638.324+101.48C636.347+103.496+633.936+104.504+631.09+104.504Z" opacity="1" fill="url(#LinearGradient_12)"/>
</g>
<path d="M683.759+30.4298C682.43+30.4298+681.102+30.9371+680.088+31.9508L673.821+38.2172L686.801+51.1964L693.067+44.9299C695.094+42.9025+695.094+39.6159+693.067+37.5886L687.429+31.9508C686.416+30.9371+685.087+30.4298+683.759+30.4298ZM668.63+43.4089L638.154+73.8845C638.154+73.8845+640.537+73.671+641.424+74.5588C642.312+75.4466+641.581+81.256+642.672+82.3463C643.762+83.4365+649.535+82.6691+650.363+83.4972C651.191+84.3252+651.133+86.8636+651.133+86.8636L681.609+56.388L668.63+43.4089ZM634.884+82.3463L632.435+89.282C632.339+89.5557+632.289+89.8436+632.288+90.1338C632.288+91.5674+633.45+92.7296+634.884+92.7296C635.174+92.7285+635.462+92.6788+635.736+92.5826C635.744+92.5792+635.753+92.5759+635.761+92.5724L635.827+92.5521C635.832+92.5488+635.837+92.5454+635.842+92.542L642.672+90.1338L638.778+86.24L634.884+82.3463Z" opacity="1" fill="#06689b"/>
</g>
</svg>
