<?xml version="1.0" encoding="UTF-8" standalone="no"?> <!-- Created with Vectornator for iOS (http://vectornator.io/) --><!DOCTYPE svg PUBLIC "-//W3C//DTD SVG 1.1//EN" "http://www.w3.org/Graphics/SVG/1.1/DTD/svg11.dtd">
<svg style="fill-rule:evenodd;clip-rule:evenodd;stroke-linecap:round;stroke-linejoin:round;" xmlns:vectornator="http://vectornator.io" xmlns:xlink="http://www.w3.org/1999/xlink" xmlns="http://www.w3.org/2000/svg" xml:space="preserve" version="1.1" viewBox="0 0 786.834 283">
<metadata>
<vectornator:setting key="DynamicGuides" value="0"/>
<vectornator:setting key="Units" value="Points"/>
<vectornator:setting key="GuidesVisible" value="1"/>
<vectornator:setting key="RulersVisible" value="1"/>
<vectornator:setting key="SnapToGuides" value="0"/>
<vectornator:setting key="GridSpacing" value="36"/>
</metadata>
<defs>
<linearGradient y1="256.098" id="LinearGradient" x1="631.636" y2="259.176" x2="1351.67" gradientUnits="userSpaceOnUse" gradientTransform="matrix(1 0 0 1 -586.969 -32.3394)">
<stop stop-color="#06689b" offset="0"/>
<stop stop-color="#fe5252" offset="1"/>
</linearGradient>
<linearGradient y1="256.098" id="LinearGradient_2" x1="631.636" y2="259.176" x2="1351.67" gradientUnits="userSpaceOnUse" gradientTransform="matrix(1 0 0 1 -586.969 -32.3394)">
<stop stop-color="#06689b" offset="0"/>
<stop stop-color="#fe5252" offset="1"/>
</linearGradient>
<linearGradient y1="256.098" id="LinearGradient_3" x1="631.636" y2="259.176" x2="1351.67" gradientUnits="userSpaceOnUse" gradientTransform="matrix(1 0 0 1 -586.969 -32.3394)">
<stop stop-color="#06689b" offset="0"/>
<stop stop-color="#fe5252" offset="1"/>
</linearGradient>
<linearGradient y1="256.098" id="LinearGradient_4" x1="631.636" y2="259.176" x2="1351.67" gradientUnits="userSpaceOnUse" gradientTransform="matrix(1 0 0 1 -586.969 -32.3394)">
<stop stop-color="#06689b" offset="0"/>
<stop stop-color="#fe5252" offset="1"/>
</linearGradient>
<linearGradient y1="256.098" id="LinearGradient_5" x1="631.636" y2="259.176" x2="1351.67" gradientUnits="userSpaceOnUse" gradientTransform="matrix(1 0 0 1 -586.969 -32.3394)">
<stop stop-color="#06689b" offset="0"/>
<stop stop-color="#fe5252" offset="1"/>
</linearGradient>
<linearGradient y1="256.098" id="LinearGradient_6" x1="631.636" y2="259.176" x2="1351.67" gradientUnits="userSpaceOnUse" gradientTransform="matrix(1 0 0 1 -586.969 -32.3394)">
<stop stop-color="#06689b" offset="0"/>
<stop stop-color="#fe5252" offset="1"/>
</linearGradient>
<linearGradient y1="256.098" id="LinearGradient_7" x1="631.636" y2="259.176" x2="1351.67" gradientUnits="userSpaceOnUse" gradientTransform="matrix(1 0 0 1 -586.969 -32.3394)">
<stop stop-color="#06689b" offset="0"/>
<stop stop-color="#fe5252" offset="1"/>
</linearGradient>
<linearGradient y1="256.098" id="LinearGradient_8" x1="631.636" y2="259.176" x2="1351.67" gradientUnits="userSpaceOnUse" gradientTransform="matrix(1 0 0 1 -586.969 -32.3394)">
<stop stop-color="#06689b" offset="0"/>
<stop stop-color="#fe5252" offset="1"/>
</linearGradient>
<linearGradient y1="256.098" id="LinearGradient_9" x1="631.636" y2="259.176" x2="1351.67" gradientUnits="userSpaceOnUse" gradientTransform="matrix(1 0 0 1 -586.969 -32.3394)">
<stop stop-color="#06689b" offset="0"/>
<stop stop-color="#fe5252" offset="1"/>
</linearGradient>
<linearGradient y1="256.098" id="LinearGradient_10" x1="631.636" y2="259.176" x2="1351.67" gradientUnits="userSpaceOnUse" gradientTransform="matrix(1 0 0 1 -586.969 -32.3394)">
<stop stop-color="#06689b" offset="0"/>
<stop stop-color="#fe5252" offset="1"/>
</linearGradient>
<linearGradient y1="256.098" id="LinearGradient_11" x1="631.636" y2="259.176" x2="1351.67" gradientUnits="userSpaceOnUse" gradientTransform="matrix(1 0 0 1 -586.969 -32.3394)">
<stop stop-color="#06689b" offset="0"/>
<stop stop-color="#fe5252" offset="1"/>
</linearGradient>
<linearGradient y1="256.098" id="LinearGradient_12" x1="631.636" y2="259.176" x2="1351.67" gradientUnits="userSpaceOnUse" gradientTransform="matrix(1 0 0 1 -586.969 -32.3394)">
<stop stop-color="#06689b" offset="0"/>
<stop stop-color="#fe5252" offset="1"/>
</linearGradient>
</defs>
<g id="Untitled" vectornator:layerName="Untitled">
<g opacity="1">
<path d="M52.3551+125.55L66.9921+125.55L66.9921+132.571L67.9441+132.571C69.3721+130.111+71.5934+128.009+74.6081+126.264C77.6227+124.518+81.3514+123.646+85.7941+123.646C89.5227+123.646+93.0729+124.419+96.4446+125.966C99.8162+127.513+102.791+129.655+105.37+132.392C107.948+135.129+109.991+138.402+111.498+142.21C113.005+146.018+113.759+150.183+113.759+154.705C113.759+159.227+113.005+163.392+111.498+167.2C109.991+171.008+107.948+174.28+105.37+177.017C102.791+179.754+99.8162+181.896+96.4446+183.443C93.0729+184.99+89.5227+185.764+85.7941+185.764C81.3514+185.764+77.6227+184.891+74.6081+183.146C71.5934+181.4+69.3721+179.298+67.9441+176.839L66.9921+176.839L67.9441+185.169L67.9441+209.564L52.3551+209.564L52.3551+125.55ZM82.5811+171.365C84.6437+171.365+86.6072+170.968+88.4716+170.175C90.3359+169.381+91.9821+168.271+93.4101+166.843C94.8381+165.415+95.9884+163.669+96.8611+161.607C97.7337+159.544+98.1701+157.243+98.1701+154.705C98.1701+152.166+97.7337+149.865+96.8611+147.803C95.9884+145.74+94.8381+143.995+93.4101+142.567C91.9821+141.139+90.3359+140.028+88.4716+139.235C86.6072+138.441+84.6437+138.045+82.5811+138.045C80.5184+138.045+78.5549+138.421+76.6906+139.175C74.8262+139.929+73.1801+141.02+71.7521+142.448C70.3241+143.876+69.1737+145.621+68.3011+147.684C67.4284+149.746+66.9921+152.087+66.9921+154.705C66.9921+157.323+67.4284+159.663+68.3011+161.726C69.1737+163.788+70.3241+165.534+71.7521+166.962C73.1801+168.39+74.8262+169.48+76.6906+170.234C78.5549+170.988+80.5184+171.365+82.5811+171.365Z" opacity="1" fill="url(#LinearGradient)"/>
<path d="M155.726+177.672L154.774+177.672C152.949+179.893+150.748+181.797+148.169+183.384C145.591+184.97+142.279+185.764+138.233+185.764C135.218+185.764+132.382+185.268+129.724+184.276C127.067+183.284+124.746+181.916+122.763+180.171C120.78+178.425+119.233+176.323+118.122+173.864C117.011+171.404+116.456+168.707+116.456+165.772C116.456+162.757+117.051+160.04+118.241+157.62C119.431+155.2+121.097+153.118+123.239+151.373C125.381+149.627+127.9+148.298+130.795+147.386C133.691+146.474+136.845+146.018+140.256+146.018C144.064+146.018+147.198+146.315+149.657+146.91C152.116+147.505+154.139+148.12+155.726+148.755L155.726+146.97C155.726+143.876+154.496+141.317+152.037+139.294C149.578+137.271+146.523+136.26+142.874+136.26C137.479+136.26+132.918+138.521+129.189+143.043L117.884+135.308C124.072+127.533+132.521+123.646+143.231+123.646C152.275+123.646+159.177+125.768+163.937+130.012C168.697+134.256+171.077+140.544+171.077+148.874L171.077+183.86L155.726+183.86L155.726+177.672ZM155.726+160.179C153.901+159.306+152.017+158.612+150.073+158.096C148.13+157.58+146.008+157.323+143.707+157.323C139.978+157.323+137.102+158.136+135.079+159.762C133.056+161.388+132.045+163.392+132.045+165.772C132.045+168.152+133.017+170.056+134.96+171.484C136.904+172.912+139.145+173.626+141.684+173.626C143.747+173.626+145.651+173.249+147.396+172.495C149.141+171.741+150.629+170.75+151.858+169.52C153.088+168.29+154.04+166.862+154.714+165.236C155.389+163.61+155.726+161.924+155.726+160.179Z" opacity="1" fill="url(#LinearGradient_2)"/>
<path d="M179.486+125.55L194.123+125.55L194.123+133.642L195.075+133.642C195.789+132.214+196.741+130.905+197.931+129.715C199.121+128.525+200.45+127.493+201.917+126.621C203.385+125.748+204.972+125.074+206.677+124.598C208.383+124.122+210.069+123.884+211.735+123.884C213.797+123.884+215.563+124.082+217.03+124.479C218.498+124.875+219.747+125.391+220.779+126.026L216.614+140.187C215.662+139.711+214.611+139.334+213.46+139.056C212.31+138.778+210.902+138.64+209.236+138.64C207.094+138.64+205.15+139.056+203.405+139.889C201.659+140.722+200.172+141.892+198.942+143.4C197.713+144.907+196.761+146.672+196.086+148.695C195.412+150.718+195.075+152.92+195.075+155.3L195.075+183.86L179.486+183.86L179.486+125.55Z" opacity="1" fill="url(#LinearGradient_3)"/>
<path d="M224.547+183.86L224.547+98.6557L240.136+98.6557L240.136+183.86L224.547+183.86Z" opacity="1" fill="url(#LinearGradient_4)"/>
<path d="M304.118+169.818C301.42+174.578+297.791+178.425+293.229+181.361C288.667+184.296+283.094+185.764+276.51+185.764C272.067+185.764+267.961+184.99+264.193+183.443C260.425+181.896+257.152+179.734+254.376+176.958C251.599+174.181+249.437+170.908+247.89+167.14C246.343+163.372+245.57+159.227+245.57+154.705C245.57+150.5+246.323+146.513+247.831+142.745C249.338+138.977+251.44+135.684+254.138+132.868C256.835+130.052+260.028+127.811+263.717+126.145C267.406+124.479+271.472+123.646+275.915+123.646C280.595+123.646+284.76+124.419+288.41+125.966C292.059+127.513+295.113+129.655+297.573+132.392C300.032+135.129+301.896+138.362+303.166+142.091C304.435+145.819+305.07+149.865+305.07+154.229C305.07+154.784+305.07+155.26+305.07+155.657C304.99+156.133+304.951+156.569+304.951+156.966C304.871+157.362+304.832+157.799+304.832+158.275L260.921+158.275C261.238+160.655+261.892+162.697+262.884+164.403C263.876+166.109+265.105+167.537+266.573+168.687C268.041+169.837+269.647+170.67+271.393+171.186C273.138+171.702+274.923+171.96+276.748+171.96C280.318+171.96+283.273+171.146+285.613+169.52C287.953+167.894+289.798+165.851+291.147+163.392L304.118+169.818ZM289.957+147.208C289.877+146.176+289.54+145.026+288.945+143.757C288.35+142.487+287.477+141.297+286.327+140.187C285.177+139.076+283.749+138.164+282.043+137.45C280.337+136.736+278.295+136.379+275.915+136.379C272.583+136.379+269.647+137.331+267.109+139.235C264.57+141.139+262.785+143.796+261.754+147.208L289.957+147.208Z" opacity="1" fill="url(#LinearGradient_5)"/>
<path d="M311.098+125.55L325.735+125.55L325.735+133.166L326.687+133.166C328.512+130.31+330.991+128.009+334.125+126.264C337.259+124.518+340.729+123.646+344.537+123.646C348.98+123.646+352.709+124.677+355.723+126.74C358.738+128.802+360.88+131.341+362.149+134.356C363.974+131.42+366.552+128.901+369.884+126.799C373.216+124.697+377.262+123.646+382.022+123.646C385.592+123.646+388.686+124.221+391.304+125.371C393.922+126.521+396.084+128.128+397.79+130.191C399.496+132.253+400.785+134.732+401.657+137.628C402.53+140.524+402.966+143.677+402.966+147.089L402.966+183.86L387.377+183.86L387.377+149.945C387.377+142.011+384.125+138.045+377.619+138.045C375.557+138.045+373.732+138.501+372.145+139.413C370.559+140.325+369.23+141.555+368.159+143.102C367.088+144.649+366.255+146.494+365.66+148.636C365.065+150.778+364.767+153.078+364.767+155.538L364.767+183.86L349.178+183.86L349.178+149.945C349.178+142.011+345.767+138.045+338.944+138.045C336.961+138.045+335.216+138.501+333.708+139.413C332.201+140.325+330.932+141.555+329.9+143.102C328.869+144.649+328.076+146.494+327.52+148.636C326.965+150.778+326.687+153.078+326.687+155.538L326.687+183.86L311.098+183.86L311.098+125.55Z" opacity="1" fill="url(#LinearGradient_6)"/>
<path d="M467.067+169.818C464.37+174.578+460.74+178.425+456.179+181.361C451.617+184.296+446.044+185.764+439.459+185.764C435.017+185.764+430.911+184.99+427.143+183.443C423.374+181.896+420.102+179.734+417.325+176.958C414.549+174.181+412.387+170.908+410.84+167.14C409.293+163.372+408.519+159.227+408.519+154.705C408.519+150.5+409.273+146.513+410.78+142.745C412.288+138.977+414.39+135.684+417.087+132.868C419.785+130.052+422.978+127.811+426.667+126.145C430.356+124.479+434.422+123.646+438.864+123.646C443.545+123.646+447.71+124.419+451.359+125.966C455.009+127.513+458.063+129.655+460.522+132.392C462.982+135.129+464.846+138.362+466.115+142.091C467.385+145.819+468.019+149.865+468.019+154.229C468.019+154.784+468.019+155.26+468.019+155.657C467.94+156.133+467.9+156.569+467.9+156.966C467.821+157.362+467.781+157.799+467.781+158.275L423.87+158.275C424.188+160.655+424.842+162.697+425.834+164.403C426.825+166.109+428.055+167.537+429.523+168.687C430.99+169.837+432.597+170.67+434.342+171.186C436.088+171.702+437.873+171.96+439.697+171.96C443.267+171.96+446.222+171.146+448.563+169.52C450.903+167.894+452.748+165.851+454.096+163.392L467.067+169.818ZM452.906+147.208C452.827+146.176+452.49+145.026+451.895+143.757C451.3+142.487+450.427+141.297+449.277+140.187C448.126+139.076+446.698+138.164+444.993+137.45C443.287+136.736+441.244+136.379+438.864+136.379C435.532+136.379+432.597+137.331+430.058+139.235C427.52+141.139+425.735+143.796+424.703+147.208L452.906+147.208Z" opacity="1" fill="url(#LinearGradient_7)"/>
<path d="M488.685+133.166L489.637+133.166C491.462+130.23+493.921+127.91+497.015+126.204C500.109+124.498+503.639+123.646+507.606+123.646C511.255+123.646+514.468+124.241+517.245+125.431C520.022+126.621+522.303+128.306+524.088+130.488C525.873+132.67+527.221+135.288+528.134+138.342C529.046+141.396+529.502+144.788+529.502+148.517L529.502+183.86L513.913+183.86L513.913+150.421C513.913+146.216+512.981+143.102+511.117+141.079C509.252+139.056+506.535+138.045+502.965+138.045C500.823+138.045+498.939+138.501+497.313+139.413C495.686+140.325+494.298+141.555+493.148+143.102C491.997+144.649+491.125+146.474+490.53+148.576C489.935+150.678+489.637+152.92+489.637+155.3L489.637+183.86L474.048+183.86L474.048+125.55L488.685+125.55L488.685+133.166Z" opacity="1" fill="url(#LinearGradient_8)"/>
<path d="M541.838+138.878L531.604+138.878L531.604+125.55L541.838+125.55L541.838+107.7L557.427+107.7L557.427+125.55L571.707+125.55L571.707+138.878L557.427+138.878L557.427+161.488C557.427+162.836+557.566+164.086+557.843+165.236C558.121+166.386+558.657+167.358+559.45+168.152C560.561+169.421+562.147+170.056+564.21+170.056C565.559+170.056+566.63+169.917+567.423+169.639C568.216+169.361+568.97+168.985+569.684+168.509L574.087+182.194C572.262+183.066+570.299+183.721+568.196+184.157C566.094+184.593+563.774+184.812+561.235+184.812C558.3+184.812+555.662+184.355+553.321+183.443C550.981+182.531+549.018+181.281+547.431+179.695C543.702+176.125+541.838+171.047+541.838+164.463L541.838+138.878Z" opacity="1" fill="url(#LinearGradient_9)"/>
<path d="M594.396+133.166L595.348+133.166C597.173+130.23+599.632+127.91+602.726+126.204C605.82+124.498+609.35+123.646+613.317+123.646C616.966+123.646+620.179+124.241+622.956+125.431C625.733+126.621+628.013+128.306+629.798+130.488C631.583+132.67+632.932+135.288+633.844+138.342C634.757+141.396+635.213+144.788+635.213+148.517L635.213+183.86L619.624+183.86L619.624+150.421C619.624+146.216+618.692+143.102+616.827+141.079C614.963+139.056+612.246+138.045+608.676+138.045C606.534+138.045+604.65+138.501+603.023+139.413C601.397+140.325+600.009+141.555+598.858+143.102C597.708+144.649+596.835+146.474+596.24+148.576C595.645+150.678+595.348+152.92+595.348+155.3L595.348+183.86L579.759+183.86L579.759+125.55L594.396+125.55L594.396+133.166Z" opacity="1" fill="url(#LinearGradient_10)"/>
<path d="M644.098+183.86L644.098+98.6557L659.687+98.6557L659.687+183.86L644.098+183.86Z" opacity="1" fill="url(#LinearGradient_11)"/>
<path d="M678.449+184.574C675.593+184.574+673.153+183.562+671.13+181.539C669.107+179.516+668.096+177.077+668.096+174.221C668.096+171.365+669.107+168.945+671.13+166.962C673.153+164.978+675.593+163.987+678.449+163.987C681.305+163.987+683.724+164.978+685.708+166.962C687.691+168.945+688.683+171.365+688.683+174.221C688.683+177.077+687.691+179.516+685.708+181.539C683.724+183.562+681.305+184.574+678.449+184.574Z" opacity="1" fill="url(#LinearGradient_12)"/>
</g>
<path d="M731.3+110.242C729.967+110.242+728.634+110.751+727.617+111.768L721.328+118.056L734.352+131.081L740.641+124.792C742.675+122.758+742.675+119.46+740.641+117.426L734.983+111.768C733.966+110.751+732.633+110.242+731.3+110.242ZM716.119+123.266L685.537+153.848C685.537+153.848+687.928+153.633+688.819+154.524C689.71+155.415+688.976+161.245+690.07+162.339C691.164+163.433+696.957+162.663+697.788+163.494C698.619+164.325+698.561+166.872+698.561+166.872L729.143+136.29L716.119+123.266ZM682.256+162.339L679.798+169.298C679.702+169.573+679.652+169.862+679.651+170.153C679.651+171.592+680.817+172.758+682.256+172.758C682.547+172.757+682.836+172.707+683.11+172.61C683.119+172.607+683.127+172.604+683.136+172.6L683.202+172.58C683.207+172.577+683.212+172.573+683.217+172.57L690.07+170.153L686.163+166.246L682.256+162.339Z" opacity="1" fill="#06689b"/>
</g>
</svg>
